<?xml version="1.0" encoding="utf-8"?>
<!-- Generator: Adobe Illustrator 27.5.0, SVG Export Plug-In . SVG Version: 6.00 Build 0)  -->
<svg version="1.1" id="Layer_1" xmlns="http://www.w3.org/2000/svg" xmlns:xlink="http://www.w3.org/1999/xlink" x="0px" y="0px"
	 viewBox="0 0 389.094 232.606" style="enable-background:new 0 0 389.094 232.606;" xml:space="preserve">
<g>
	<g>
		<g>
			<g>
				<g>
					<path d="M96.647,7.704c13.741,0,27.061,9.936,27.061,32.184c0,36.455-56.046,66.727-56.046,66.727S11.616,76.343,11.616,39.888
						c0-22.251,13.318-32.186,27.061-32.184c12.684,0.002,25.731,8.47,28.985,23.535C70.916,16.172,83.961,7.704,96.647,7.704
						 M38.67,5.815c-7.776,0-14.894,2.958-20.042,8.33c-5.823,6.075-8.9,14.976-8.9,25.743c0,8.691,3.051,17.724,9.069,26.846
						c4.744,7.191,11.34,14.464,19.606,21.617c14.006,12.12,28.219,19.85,28.361,19.926l0.898,0.485l0.898-0.485
						c0.142-0.077,14.355-7.807,28.361-19.926c8.266-7.153,14.862-14.426,19.606-21.617c6.018-9.122,9.069-18.154,9.069-26.846
						c0-10.766-3.079-19.667-8.903-25.742c-5.15-5.372-12.27-8.33-20.047-8.33c-6.856,0-13.666,2.31-19.174,6.504
						c-4.371,3.328-7.697,7.633-9.811,12.648c-2.114-5.014-5.441-9.319-9.812-12.647c-5.508-4.194-12.317-6.504-19.173-6.505h-0.005
						C38.672,5.815,38.67,5.815,38.67,5.815L38.67,5.815z"/>
				</g>
			</g>
			<g>
				<g>
					<path d="M243.827,15.754c-5.512-5.219-12.936-8.093-20.904-8.093c-6.655,0-13.148,2.082-18.283,5.864
						c-4.086,3.009-7.215,6.981-9.233,11.673c-2.018-4.691-5.147-8.663-9.234-11.672c-5.136-3.781-11.629-5.864-18.283-5.865h-0.004
						c-7.969,0-15.393,2.874-20.903,8.093c-6.222,5.892-9.511,14.296-9.511,24.302c0,10.497,4.334,20.256,13.249,29.836
						c7.532,8.093,16.979,14.646,25.314,20.427c8.991,6.236,19.371,12.733,19.371,17.071c0-4.338,10.381-10.835,19.372-17.071
						c8.335-5.781,17.781-12.334,25.314-20.427c8.915-9.579,13.249-19.339,13.249-29.836
						C253.34,30.05,250.051,21.647,243.827,15.754z M195.406,106.365c0-13.941-56.046-29.854-56.046-66.309
						c0-20.474,14.284-30.507,28.529-30.505c12.208,0.001,24.388,7.372,27.517,21.856C198.535,16.92,210.713,9.55,222.923,9.55
						c14.244,0,28.529,10.034,28.529,30.505C251.452,76.51,195.406,92.424,195.406,106.365z"/>
				</g>
			</g>
			<g>
				<g>
					<path d="M353.237,9.55c20.245,0,35.365,28.417,13.527,52.826c-20.451,22.859-43.614,44.239-43.614,44.239
						s-23.163-21.38-43.614-44.239c-21.84-24.411-6.721-52.828,13.527-52.826c10.065,0.001,21.399,7.024,30.087,25.052
						C331.84,16.571,343.171,9.55,353.237,9.55 M293.061,7.661c-4.938,0-9.757,1.562-13.938,4.517
						c-4.054,2.865-7.325,6.902-9.459,11.674c-2.606,5.828-3.367,12.385-2.201,18.963c1.306,7.366,4.894,14.37,10.665,20.82
						c20.276,22.664,43.508,44.153,43.741,44.367l1.281,1.182l1.281-1.182c0.232-0.215,23.464-21.703,43.741-44.367
						c5.77-6.449,9.357-13.453,10.663-20.818c1.166-6.577,0.406-13.134-2.2-18.962c-2.134-4.772-5.404-8.809-9.458-11.675
						c-4.181-2.956-9.002-4.519-13.94-4.519c-5.732,0-11.512,2.13-16.716,6.16c-5.017,3.885-9.505,9.468-13.371,16.625
						c-3.865-7.156-8.353-12.738-13.371-16.624c-5.204-4.03-10.985-6.161-16.716-6.161l0,1.889l0-1.889
						C293.063,7.661,293.061,7.661,293.061,7.661L293.061,7.661z"/>
				</g>
			</g>
		</g>
		<g>
			<g>
				<g>
					<path style="fill:#7C7C7C;" d="M38.67,123.421c-7.776,0-14.894,2.958-20.042,8.33c-5.823,6.075-8.9,14.976-8.9,25.743
						c0,8.691,3.051,17.724,9.069,26.846c4.744,7.191,11.34,14.464,19.606,21.617c14.006,12.12,28.219,19.85,28.361,19.927
						l0.898,0.485l0.898-0.485c0.142-0.077,14.355-7.807,28.361-19.927c8.266-7.153,14.862-14.426,19.606-21.617
						c6.018-9.122,9.069-18.154,9.069-26.846c0-10.766-3.079-19.667-8.903-25.742c-5.15-5.372-12.27-8.331-20.047-8.331
						c-6.856,0-13.666,2.31-19.174,6.503c-4.371,3.328-7.697,7.633-9.811,12.648c-2.114-5.014-5.441-9.319-9.812-12.647
						c-5.508-4.194-12.317-6.504-19.173-6.505h-0.005C38.672,123.421,38.67,123.421,38.67,123.421L38.67,123.421z"/>
				</g>
			</g>
			<g>
				<g>
					<path style="fill:#7C7C7C;" d="M243.827,133.36c-5.512-5.219-12.936-8.093-20.904-8.093c-6.655,0-13.148,2.082-18.283,5.863
						c-4.086,3.009-7.215,6.98-9.233,11.673c-2.018-4.691-5.147-8.663-9.234-11.671c-5.136-3.781-11.629-5.864-18.283-5.865h-0.004
						c-7.969,0-15.393,2.874-20.903,8.093c-6.222,5.893-9.511,14.296-9.511,24.301c0,10.497,4.334,20.257,13.249,29.836
						c7.532,8.093,16.979,14.645,25.314,20.427c8.991,6.236,19.371,12.733,19.371,17.071c0-4.338,10.381-10.835,19.372-17.071
						c8.335-5.781,17.781-12.334,25.314-20.427c8.915-9.579,13.249-19.339,13.249-29.836
						C253.34,147.656,250.051,139.253,243.827,133.36z"/>
				</g>
			</g>
			<g>
				<g>
					<path style="fill:#7C7C7C;" d="M293.061,125.267c-4.938,0-9.757,1.562-13.938,4.517c-4.054,2.865-7.325,6.902-9.459,11.674
						c-2.606,5.828-3.367,12.385-2.201,18.963c1.306,7.366,4.894,14.37,10.665,20.82c20.276,22.664,43.508,44.153,43.741,44.367
						l1.281,1.182l1.281-1.182c0.232-0.214,23.464-21.704,43.741-44.367c5.77-6.449,9.357-13.454,10.663-20.818
						c1.166-6.577,0.406-13.134-2.2-18.962c-2.134-4.772-5.404-8.809-9.458-11.675c-4.181-2.956-9.002-4.519-13.94-4.519
						c-5.732,0-11.512,2.13-16.716,6.16c-5.017,3.885-9.505,9.468-13.371,16.625c-3.865-7.156-8.353-12.738-13.371-16.624
						c-5.204-4.03-10.985-6.161-16.716-6.161l0,1.889l0-1.889C293.063,125.267,293.061,125.267,293.061,125.267L293.061,125.267z"/>
				</g>
			</g>
		</g>
	</g>
	<g>
		<g>
			<g>
				<path style="fill:#2D2D2D;" d="M67.662,148.844c-6.779-31.386-56.046-34.14-56.046,8.649c0,36.455,56.046,66.727,56.046,66.727
					s56.046-30.272,56.046-66.727C123.708,114.705,74.441,117.459,67.662,148.844z"/>
				<path d="M96.647,125.31c13.741,0,27.061,9.936,27.061,32.184c0,36.455-56.046,66.727-56.046,66.727
					s-56.046-30.272-56.046-66.727c0-22.251,13.318-32.186,27.061-32.184c12.685,0.002,25.731,8.47,28.985,23.535
					C70.916,133.778,83.961,125.31,96.647,125.31 M38.67,123.421c-7.776,0-14.894,2.958-20.042,8.33
					c-5.823,6.075-8.9,14.976-8.9,25.743c0,8.691,3.051,17.724,9.069,26.846c4.744,7.191,11.34,14.464,19.606,21.617
					c14.006,12.12,28.219,19.85,28.361,19.927l0.898,0.485l0.898-0.485c0.142-0.077,14.355-7.807,28.361-19.927
					c8.266-7.153,14.862-14.426,19.606-21.617c6.018-9.122,9.069-18.154,9.069-26.846c0-10.766-3.079-19.667-8.903-25.742
					c-5.15-5.372-12.27-8.331-20.047-8.331c-6.857,0-13.666,2.31-19.174,6.503c-4.371,3.328-7.697,7.633-9.811,12.648
					c-2.114-5.014-5.441-9.319-9.812-12.647c-5.508-4.194-12.317-6.504-19.173-6.505h-0.005
					C38.672,123.421,38.67,123.421,38.67,123.421L38.67,123.421z"/>
			</g>
			<g>
				<path style="opacity:0.6;" d="M67.662,151.317c0-0.935,0-2.473,0-2.473c-3.738-16.753-18.306-23.853-29.619-23.523
					C48.77,126.071,61.552,134.819,67.662,151.317z"/>
				<path style="opacity:0.6;" d="M94.47,125.393c12.309,0.938,23.686,10.461,23.686,30.506c0,34.65-53.27,59.75-53.27,59.75
					s-52.555-24.721-53.253-59.061c-0.005,0.302-0.016,0.599-0.016,0.906c0,36.455,56.046,66.727,56.046,66.727
					s56.046-30.272,56.046-66.727C123.708,134.071,108.945,124.296,94.47,125.393z"/>
			</g>
			<path style="fill:#444444;" d="M15.017,164.531c-4.819-32.676,21.408-44.714,37.835-32.294
				C40.793,125.537,15.31,134.987,15.017,164.531z"/>
		</g>
		<g>
			<g>
				<path style="fill:#2D2D2D;" d="M195.406,149.012c-6.779-31.386-56.046-29.371-56.046,8.649
					c0,36.455,56.046,52.786,56.046,66.727c0-13.94,56.046-30.272,56.046-66.727C251.452,119.641,202.185,117.626,195.406,149.012z"
					/>
				<path d="M243.827,133.36c-5.512-5.219-12.936-8.093-20.904-8.093c-6.655,0-13.148,2.082-18.283,5.863
					c-4.086,3.009-7.215,6.98-9.233,11.673c-2.018-4.691-5.147-8.663-9.234-11.671c-5.136-3.781-11.629-5.864-18.283-5.865h-0.004
					c-7.969,0-15.392,2.874-20.903,8.093c-6.222,5.892-9.511,14.296-9.511,24.301c0,10.497,4.334,20.257,13.249,29.836
					c7.532,8.093,16.979,14.646,25.314,20.427c8.991,6.236,19.371,12.733,19.371,17.071c0-4.338,10.381-10.835,19.371-17.071
					c8.335-5.781,17.781-12.334,25.314-20.427c8.916-9.579,13.249-19.339,13.249-29.836
					C253.34,147.656,250.051,139.253,243.827,133.36z M195.406,224.388c0-13.941-56.046-30.272-56.046-66.727
					c0-20.474,14.284-30.507,28.529-30.505c12.208,0.001,24.388,7.372,27.517,21.856c3.129-14.486,15.307-21.856,27.517-21.856
					c14.244,0,28.529,10.034,28.529,30.505C251.452,194.116,195.406,210.447,195.406,224.388z"/>
			</g>
			<g>
				<path style="opacity:0.6;" d="M237.827,131.181c5.329,4.851,8.917,12.263,8.917,22.3c0,34.924-53.692,50.57-53.692,63.925
					c0-13.101-51.662-28.408-53.628-61.954c-0.038,0.724-0.064,1.458-0.064,2.21c0,36.455,56.046,52.786,56.046,66.727
					c0-13.94,56.046-30.272,56.046-66.727C251.452,144.654,245.685,135.864,237.827,131.181z"/>
				<path style="opacity:0.6;" d="M195.406,152.476v-3.464c-5.033-23.303-33.487-28.193-47.81-13.606
					C153.911,128.686,185.147,120.809,195.406,152.476z"/>
			</g>
			<path style="fill:#444444;" d="M145.6,166.914c-8.889-32.042,20.221-42.802,36.649-30.381
				C170.189,129.833,142.244,136.336,145.6,166.914z"/>
		</g>
		<g>
			<g>
				<path style="fill:#2D2D2D;" d="M323.15,152.207c-26.167-54.295-76.31-8.771-43.614,27.775
					c20.451,22.859,43.614,44.239,43.614,44.239s23.163-21.38,43.614-44.239C399.46,143.436,349.318,97.913,323.15,152.207z"/>
				<path d="M353.237,127.156c20.245,0,35.365,28.417,13.527,52.826c-20.451,22.859-43.614,44.239-43.614,44.239
					s-23.163-21.38-43.614-44.239c-21.84-24.411-6.721-52.828,13.527-52.826c10.065,0.001,21.399,7.024,30.087,25.052
					C331.84,134.176,343.171,127.156,353.237,127.156 M293.061,125.267c-4.938,0-9.757,1.562-13.938,4.517
					c-4.054,2.865-7.325,6.902-9.459,11.674c-2.606,5.828-3.367,12.385-2.201,18.963c1.306,7.366,4.894,14.37,10.665,20.82
					c20.277,22.664,43.508,44.153,43.741,44.367l1.281,1.182l1.281-1.182c0.232-0.214,23.464-21.704,43.741-44.367
					c5.77-6.449,9.357-13.454,10.663-20.818c1.166-6.577,0.406-13.134-2.2-18.962c-2.134-4.772-5.404-8.809-9.458-11.675
					c-4.181-2.956-9.002-4.519-13.94-4.519c-5.732,0-11.512,2.13-16.716,6.16c-5.018,3.885-9.506,9.468-13.371,16.625
					c-3.865-7.156-8.353-12.738-13.371-16.624c-5.204-4.03-10.985-6.161-16.716-6.161l0,1.889l0-1.889
					C293.063,125.267,293.061,125.267,293.061,125.267L293.061,125.267z"/>
			</g>
			<path style="opacity:0.6;" d="M374.935,142.287c1.922,9.495-0.558,20.934-10.108,31.608
				c-20.451,22.859-43.614,44.239-43.614,44.239s-23.163-21.38-43.614-44.239c-3.649-4.078-6.263-8.268-7.997-12.419
				c1.343,6.083,4.488,12.419,9.934,18.506c20.451,22.859,43.614,44.239,43.614,44.239s23.163-21.38,43.614-44.239
				C378.464,166.904,379.555,152.678,374.935,142.287z"/>
			<path style="opacity:0.6;" d="M323.15,156.749v-4.542c-13.887-28.814-34.527-29.515-45.953-18.364
				C280.76,130.955,303.967,119.42,323.15,156.749z"/>
			<path style="fill:#444444;" d="M273.845,163.409c-9.091-28.4,17.106-41.069,33.194-24.567
				C295.357,129.949,271.619,133.32,273.845,163.409z"/>
		</g>
	</g>
</g>
</svg>
